<?xml version="1.0" encoding="UTF-8" standalone="no"?>
<!-- Created with Inkscape (http://www.inkscape.org/) -->

<svg
   xmlns:dc="http://purl.org/dc/elements/1.1/"
   xmlns:cc="http://creativecommons.org/ns#"
   xmlns:rdf="http://www.w3.org/1999/02/22-rdf-syntax-ns#"
   xmlns:svg="http://www.w3.org/2000/svg"
   xmlns="http://www.w3.org/2000/svg"
   xmlns:xlink="http://www.w3.org/1999/xlink"
   xmlns:sodipodi="http://sodipodi.sourceforge.net/DTD/sodipodi-0.dtd"
   xmlns:inkscape="http://www.inkscape.org/namespaces/inkscape"
   id="svg2"
   sodipodi:docname="Pow-openclipart-Viscious-Speed.svg"
   inkscape:export-filename="C:\Users\USER\Desktop\Spacers.png"
   viewBox="0 0 900 830"
   inkscape:export-xdpi="500"
   version="1.1"
   inkscape:export-ydpi="500"
   inkscape:version="0.92.3 (2405546, 2018-03-11)">
  <title
     id="title5661">Pow</title>
  <defs
     id="defs4">
    <filter
       id="filter7822-1"
       color-interpolation-filters="sRGB"
       inkscape:collect="always">
      <feGaussianBlur
         id="feGaussianBlur7824-7"
         stdDeviation="4.0248438"
         inkscape:collect="always" />
    </filter>
    <linearGradient
       id="linearGradient7778-4">
      <stop
         id="stop7780-0"
         style="stop-color:#ffcc00"
         offset="0" />
      <stop
         id="stop7782-9"
         style="stop-color:#e40039;stop-opacity:.96471"
         offset="1" />
    </linearGradient>
    <linearGradient
       id="linearGradient7790-4">
      <stop
         id="stop7792-8"
         style="stop-color:#ffd600"
         offset="0" />
      <stop
         id="stop7794-8"
         style="stop-color:#ffcc00;stop-opacity:0"
         offset="1" />
    </linearGradient>
    <radialGradient
       id="radialGradient3945"
       xlink:href="#linearGradient7778-4"
       gradientUnits="userSpaceOnUse"
       cy="815.24"
       cx="680.14"
       gradientTransform="matrix(1.2134,-3.459e-7,3.8323e-7,1.3444,-145.13,-280.73)"
       r="198.83"
       inkscape:collect="always" />
    <radialGradient
       id="radialGradient3947"
       xlink:href="#linearGradient7790-4"
       gradientUnits="userSpaceOnUse"
       cy="815.24"
       cx="680.14"
       gradientTransform="matrix(1.4947,0.014182,-0.0097182,1.0242,-328.72,-29.543)"
       r="136.7"
       inkscape:collect="always" />
  </defs>
  <sodipodi:namedview
     id="base"
     bordercolor="#666666"
     inkscape:pageshadow="2"
     inkscape:window-y="0"
     pagecolor="#ffffff"
     inkscape:window-height="1018"
     inkscape:window-maximized="1"
     inkscape:zoom="0.66"
     inkscape:window-x="0"
     showgrid="false"
     borderopacity="1.0"
     inkscape:current-layer="layer1"
     inkscape:cx="539.85723"
     inkscape:cy="444.20454"
     inkscape:showpageshadow="false"
     inkscape:window-width="1920"
     inkscape:pageopacity="0.0"
     inkscape:document-units="px" />
  <g
     id="layer1"
     inkscape:label="Layer 1"
     inkscape:groupmode="layer"
     transform="translate(0,-222.36)">
    <path
       id="path7804"
       style="opacity:0.68269001;fill:#000000;fill-rule:evenodd;filter:url(#filter7822-1)"
       transform="matrix(0.04037228,-1.7618506,-1.8565536,-0.0383128,1938.8747,1869.0754)"
       d="m 753.78,611.58 c 0,0 -38.635,81.371 -72.125,90.531 -15.44,4.2234 -41.508,-6.9372 -61.469,-17.562 -20.67,-18.162 -36.969,-35.563 -36.969,-35.563 0,10e-5 44.177,91.108 32.844,118.31 -0.0476,0.1143 -0.1057,0.2297 -0.1562,0.3437 -30.496,14.173 -99.719,13.656 -99.719,13.656 0,-10e-5 21.54,7.2666 43.344,17.406 -34.847,10.197 -72.562,15.469 -72.562,15.469 0,-10e-5 97.365,14.869 110.03,37.437 1.3333,2.3756 2.4604,5.0213 3.375,7.875 -13.902,38.054 -54.5,90.094 -54.5,90.094 0,0 27.329,-18.986 56.031,-33.906 -4.1834,32.112 -13.375,62.031 -13.375,62.031 0,0 55.32,-57.153 86.25,-56.531 2.4844,0.0499 5.1023,0.4703 7.8125,1.1562 22.778,35.192 41.5,96.562 41.5,96.562 0,0 -0.2061,-36.786 4.2812,-69.062 21.486,17.888 39.031,37.531 39.031,37.531 0,0 -23.497,-56.309 -17.906,-86.687 22.618,-12.459 64.77,-12.18 92.688,-10.313 23.62,7.864 42.438,16.719 42.438,16.719 0,0 -8.3948,-5.7735 -19.625,-14.656 2.9774,0.3541 4.75,0.5937 4.75,0.5937 0,0 -26.288,-18.454 -46.531,-39.781 -9.0061,-10.797 -15.676,-21.794 -16.75,-31.5 -3.1472,-28.429 47.438,-82.719 47.438,-82.719 0,0 -13.59,8.7993 -31.188,16.344 13.726,-22.289 28.625,-40.531 28.625,-40.531 0,0 -73.41,45.276 -97.562,26.875 -1.3094,-0.9976 -2.4982,-2.1595 -3.5938,-3.4375 -5.7022,-34.414 3.9063,-92.344 3.9063,-92.344 0,-10e-5 -4.7423,9.0481 -11.844,20.937 3.919,-29.203 11.531,-55.281 11.531,-55.281 z"
       inkscape:connector-curvature="0" />
    <g
       id="g7798"
       transform="matrix(0.03598563,-1.5704168,-1.6548298,-0.03414992,1777.4343,1734.3996)">
      <path
         id="path7773"
         style="fill:url(#radialGradient3945);fill-rule:evenodd"
         d="m 748.12,611.58 c -2e-5,0 -38.635,81.371 -72.125,90.531 -15.44,4.2234 -41.509,-6.9372 -61.469,-17.562 -20.67,-18.162 -36.969,-35.563 -36.969,-35.563 -10e-6,10e-5 44.177,91.108 32.844,118.31 -0.0476,0.1143 -0.10572,0.2297 -0.15625,0.3437 -30.496,14.173 -99.719,13.656 -99.719,13.656 -1e-5,-10e-5 21.54,7.2665 43.344,17.406 -34.847,10.197 -72.562,15.469 -72.562,15.469 -2e-5,-10e-5 97.365,14.869 110.03,37.437 1.3332,2.3756 2.4604,5.0213 3.375,7.875 -13.902,38.054 -54.5,90.094 -54.5,90.094 0,0 27.329,-18.986 56.031,-33.906 -4.1834,32.112 -13.375,62.031 -13.375,62.031 0,0 55.32,-57.153 86.25,-56.531 2.4844,0.0499 5.1023,0.4703 7.8125,1.1562 22.778,35.192 41.5,96.563 41.5,96.563 -10e-6,0 -0.20608,-36.786 4.2812,-69.063 21.486,17.888 39.031,37.531 39.031,37.531 0,0 -23.497,-56.309 -17.906,-86.687 22.618,-12.459 64.77,-12.18 92.688,-10.313 23.62,7.864 42.438,16.719 42.438,16.719 0,0 -8.3948,-5.7735 -19.625,-14.656 2.9773,0.3541 4.75,0.5937 4.75,0.5937 -2e-5,0 -26.288,-18.454 -46.531,-39.781 -9.0061,-10.797 -15.676,-21.794 -16.75,-31.5 -3.1472,-28.429 47.438,-82.719 47.438,-82.719 -10e-6,0 -13.59,8.7993 -31.188,16.344 13.726,-22.289 28.625,-40.531 28.625,-40.531 3e-5,0 -73.41,45.276 -97.562,26.875 -1.3094,-0.9976 -2.4982,-2.1595 -3.5938,-3.4375 -5.7022,-34.414 3.9062,-92.344 3.9062,-92.344 10e-6,-10e-5 -4.7423,9.0481 -11.844,20.937 3.9189,-29.203 11.531,-55.281 11.531,-55.281 z"
         inkscape:connector-curvature="0" />
      <path
         id="path7786"
         style="opacity:0.61058003;fill:url(#radialGradient3947);fill-rule:evenodd"
         d="m 734.1,677.76 c -10e-6,0 -29.494,54.455 -52.82,59.523 -10.755,2.3363 -28.244,-6.277 -41.56,-14.3 -13.529,-13.223 -24.083,-25.764 -24.083,-25.764 -10e-6,7e-5 27.006,64.162 18.232,82.425 -0.0369,0.0767 -0.081,0.15384 -0.1198,0.23026 -21.454,8.618 -68.96,5.7377 -68.96,5.7377 -1e-5,-7e-5 14.523,5.7746 29.122,13.531 -24.296,5.7295 -50.382,7.9728 -50.382,7.9728 -10e-6,-7e-5 66.303,13.76 74.176,29.717 0.82865,1.6796 1.506,3.5371 2.0298,5.5297 -10.933,25.619 -40.704,59.865 -40.704,59.865 0,0 19.455,-12.038 39.705,-21.234 -4.0436,21.894 -11.446,42.099 -11.446,42.099 0,0 40.065,-37.22 61.277,-35.665 1.7038,0.12491 3.4858,0.50903 5.3215,1.0788 14.355,24.992 24.969,67.809 24.969,67.809 -10e-6,0 1.2005,-25.263 5.4588,-47.258 14.099,13.065 25.428,27.191 25.428,27.191 0,0 -14.077,-39.516 -9.1309,-60.168 15.983,-7.7285 44.912,-5.9993 64.01,-3.6987 15.929,6.2607 28.525,13.026 28.525,13.026 0,0 -5.5528,-4.27 -12.939,-10.778 2.0312,0.35174 3.2394,0.5809 3.2394,0.5809 -10e-6,0 -17.375,-13.628 -30.495,-29.009 -5.7892,-7.7413 -9.9668,-15.535 -10.35,-22.237 -1.1236,-19.632 35.586,-55.06 35.586,-55.06 0,0 -9.6508,5.5454 -22.008,10.083 10.236,-14.802 21.131,-26.782 21.131,-26.782 2e-5,0 -52.051,28.406 -67.962,14.892 -0.86259,-0.73267 -1.6364,-1.5737 -2.3419,-2.4911 -2.6594,-23.835 6.0507,-63.256 6.0507,-63.256 10e-6,-6e-5 -3.5859,6.0389 -8.8951,13.942 3.7559,-19.906 9.9335,-37.532 9.9335,-37.532 z"
         inkscape:connector-curvature="0" />
    </g>
  </g>
  <metadata
     id="metadata27">
    <rdf:RDF>
      <cc:Work>
        <dc:format>image/svg+xml</dc:format>
        <dc:type
           rdf:resource="http://purl.org/dc/dcmitype/StillImage" />
        <cc:license
           rdf:resource="http://creativecommons.org/licenses/publicdomain/" />
        <dc:publisher>
          <cc:Agent
             rdf:about="http://openclipart.org/">
            <dc:title>Openclipart</dc:title>
          </cc:Agent>
        </dc:publisher>
        <dc:title>Pow</dc:title>
        <dc:date>2011-02-26T18:46:37</dc:date>
        <dc:description />
        <dc:source>https://openclipart.org/detail/122959/pow-by-viscious-speed</dc:source>
        <dc:creator>
          <cc:Agent>
            <dc:title>Viscious-Speed</dc:title>
          </cc:Agent>
        </dc:creator>
        <dc:subject>
          <rdf:Bag>
            <rdf:li>Pow</rdf:li>
            <rdf:li>explosion</rdf:li>
          </rdf:Bag>
        </dc:subject>
      </cc:Work>
      <cc:License
         rdf:about="http://creativecommons.org/licenses/publicdomain/">
        <cc:permits
           rdf:resource="http://creativecommons.org/ns#Reproduction" />
        <cc:permits
           rdf:resource="http://creativecommons.org/ns#Distribution" />
        <cc:permits
           rdf:resource="http://creativecommons.org/ns#DerivativeWorks" />
      </cc:License>
    </rdf:RDF>
  </metadata>
</svg>
