<?xml version="1.0" encoding="UTF-8" standalone="no"?>
<!-- Created with Inkscape (http://www.inkscape.org/) -->

<svg
   xmlns:dc="http://purl.org/dc/elements/1.1/"
   xmlns:cc="http://creativecommons.org/ns#"
   xmlns:rdf="http://www.w3.org/1999/02/22-rdf-syntax-ns#"
   xmlns:svg="http://www.w3.org/2000/svg"
   xmlns="http://www.w3.org/2000/svg"
   xmlns:sodipodi="http://sodipodi.sourceforge.net/DTD/sodipodi-0.dtd"
   xmlns:inkscape="http://www.inkscape.org/namespaces/inkscape"
   id="svg2"
   sodipodi:docname="whitewomanprofile-openclipart-studio_hades.svg"
   viewBox="0 0 319.29 389.11"
   sodipodi:version="0.32"
   version="1.0"
   inkscape:output_extension="org.inkscape.output.svg.inkscape"
   inkscape:version="0.92.3 (2405546, 2018-03-11)">
  <defs
     id="defs4808" />
  <sodipodi:namedview
     id="base"
     bordercolor="#666666"
     inkscape:pageshadow="2"
     guidetolerance="10.0"
     pagecolor="#ffffff"
     gridtolerance="10.0"
     inkscape:zoom="1.84"
     objecttolerance="10.0"
     borderopacity="1.0"
     inkscape:current-layer="svg2"
     inkscape:cx="243.10488"
     inkscape:cy="209.18673"
     inkscape:guide-bbox="true"
     inkscape:window-height="1018"
     showgrid="false"
     inkscape:pageopacity="0.0"
     inkscape:window-width="1920"
     showguides="true"
     inkscape:window-x="0"
     inkscape:window-y="0"
     inkscape:window-maximized="1" />
  <path
     id="path2506"
     sodipodi:nodetypes="csscsccccccccccccccccscccccccccccccccccccscscc"
     style="fill:#000000;fill-rule:evenodd;stroke:#000000;stroke-width:0.47444999px"
     d="m 233.24,0.23765 c -3.03,-0.0246 -6.09,1.017 -8.17,1.9966 -16.65,7.8468 -27.64,2.6465 -36.64,2.8781 -6.63,0.1708 -12.19,6.8797 -18.15,5.5487 -8.1,-0.049 -16.19,-1.9862 -24.08,-0.57 -18.32,3.286 -35.57,7.936 -49.425,19.343 -17.968,13.634 -43.161,34.725 -44.831,72.916 l 0.907,7.05 -4.019,50.61 c 0,0 -9.057,49.31 -14.416,50.95 -35.421,47.07 -53.108,115.92 -3.838,158.56 l 19.214,11.54 c 27.957,14.12 76.088,11.14 116.29,-25.96 l -42.29,6.74 c -22.79,-4.97 -20.42,-20.71 -26.911,-32.67 l -0.96,-6.74 c 9.301,9.15 14.611,36.6 30.751,29.79 9.79,7.38 18.97,-3.93 28.52,-9.64 -13.6,1.21 -26.68,-0.67 -36.19,-23.99 l -9.62,-13.45 c 0,0 0.04,-1.74 4.61,-9.6 5.29,4.36 10.58,9.22 15.71,14.42 13.03,13.19 22.95,22.88 30.78,30.18 -1.78,0.52 -3.54,1.39 -5.29,2.44 2.34,-0.21 4.7,-0.48 7.06,-0.78 25.14,23.21 26.3,18.83 32.9,17.86 2.16,-28.13 13.35,-55.82 29.61,-83.98 l 37.18,7.49 c 9.02,-0.55 11.53,-0.24 17.58,-7.7 2.53,-3.62 6.71,-8.05 5.58,-15.17 -1.27,-6.27 -7.07,-9.34 2.12,-17.94 l 8.09,-5.21 c -0.31,-5.14 2.18,-8.09 -1.97,-9.39 l 6.95,-5.21 c -2.91,-5.07 -6.48,-4.15 -4.64,-18.17 l 18.51,-10.04 c 4.45,-2.24 5.43,-6.79 4.64,-12.52 -15.55,-12.1 -25.31,-23.2 -30.67,-37.84 l 4.78,-7.82 c 3.68,-5.25 1.3,-9.49 0.69,-14.03 l -14.96,-54.278 c -1.49,-11.96 16.17,-24.804 6.62,-33.257 -6.18,-5.477 -12.52,-19.456 -35.95,-28.368 -3.2,1.3864 -6.43,-0.3168 -9.54,-3.4483 -1.84,-1.8582 -4.17,-2.5219 -6.53,-2.541 z"
     inkscape:connector-curvature="0" />
  <text
     id="text2416"
     style="line-height:0%;font-family:'BadaBoom BB';fill:#000000"
     xml:space="preserve"
     y="164.04166"
     x="-99.84819">     <tspan
   id="tspan2418"
   sodipodi:role="line"
   x="-99.84819"
   y="164.04166"
   style="font-size:60px;line-height:1.25" />   </text>
  <metadata
     id="metadata4805">
    <rdf:RDF>
      <cc:Work>
        <dc:format>image/svg+xml</dc:format>
        <dc:type
           rdf:resource="http://purl.org/dc/dcmitype/StillImage" />
        <cc:license
           rdf:resource="http://creativecommons.org/licenses/publicdomain/" />
        <dc:publisher>
          <cc:Agent
             rdf:about="http://openclipart.org/">
            <dc:title>Openclipart</dc:title>
          </cc:Agent>
        </dc:publisher>
        <dc:title>Female Profile Silhouette</dc:title>
        <dc:date>2011-08-24T10:31:46</dc:date>
        <dc:description>Female Profile.</dc:description>
        <dc:source>https://openclipart.org/detail/157927/female-profile-silhouette-by-studio_hades</dc:source>
        <dc:creator>
          <cc:Agent>
            <dc:title>studio_hades</dc:title>
          </cc:Agent>
        </dc:creator>
        <dc:subject>
          <rdf:Bag>
            <rdf:li>Face</rdf:li>
            <rdf:li>Female</rdf:li>
            <rdf:li>Girl</rdf:li>
            <rdf:li>Glyph</rdf:li>
            <rdf:li>Head</rdf:li>
            <rdf:li>Profile</rdf:li>
            <rdf:li>Silhouette</rdf:li>
            <rdf:li>Woman</rdf:li>
          </rdf:Bag>
        </dc:subject>
      </cc:Work>
      <cc:License
         rdf:about="http://creativecommons.org/licenses/publicdomain/">
        <cc:permits
           rdf:resource="http://creativecommons.org/ns#Reproduction" />
        <cc:permits
           rdf:resource="http://creativecommons.org/ns#Distribution" />
        <cc:permits
           rdf:resource="http://creativecommons.org/ns#DerivativeWorks" />
      </cc:License>
    </rdf:RDF>
  </metadata>
</svg>
