<?xml version="1.0" encoding="UTF-8" standalone="no"?>
<!-- Created with Inkscape (http://www.inkscape.org/) -->
<svg xmlns:inkscape="http://www.inkscape.org/namespaces/inkscape" xmlns:rdf="http://www.w3.org/1999/02/22-rdf-syntax-ns#" xmlns="http://www.w3.org/2000/svg" xmlns:cc="http://creativecommons.org/ns#" xmlns:dc="http://purl.org/dc/elements/1.1/" xmlns:sodipodi="http://sodipodi.sourceforge.net/DTD/sodipodi-0.dtd" xmlns:svg="http://www.w3.org/2000/svg" xmlns:ns1="http://sozi.baierouge.fr" xmlns:xlink="http://www.w3.org/1999/xlink" id="svg2" sodipodi:docname="femaleprofile.svg" viewBox="0 0 319.29 389.11" sodipodi:version="0.32" version="1.0" inkscape:output_extension="org.inkscape.output.svg.inkscape" inkscape:version="0.46">
  <sodipodi:namedview id="base" bordercolor="#666666" inkscape:pageshadow="2" guidetolerance="10.0" pagecolor="#ffffff" gridtolerance="10.0" inkscape:zoom="0.43166667" objecttolerance="10.0" borderopacity="1.0" inkscape:current-layer="svg2" inkscape:cx="243.10488" inkscape:cy="259.28095" inkscape:guide-bbox="true" inkscape:window-height="480" showgrid="false" inkscape:pageopacity="0.0" inkscape:window-width="640" showguides="true"/>
  <path id="path2506" sodipodi:nodetypes="csscsccccccccccccccccscccccccccccccccccccscscccsssccsssc" style="fill-rule:evenodd;stroke:#000000;stroke-width:.47445px;fill:#000000" d="m233.24 0.23765c-3.03-0.0246-6.09 1.017-8.17 1.9966-16.65 7.8468-27.64 2.6465-36.64 2.8781-6.63 0.1708-12.19 6.8797-18.15 5.5487-8.1-0.049-16.19-1.9862-24.08-0.57-18.32 3.286-35.57 7.936-49.425 19.343-17.968 13.634-43.161 34.725-44.831 72.916l0.907 7.05-4.019 50.61s-9.057 49.31-14.416 50.95c-35.421 47.07-53.108 115.92-3.838 158.56l19.214 11.54c27.957 14.12 76.088 11.14 116.29-25.96l-42.29 6.74c-22.79-4.97-20.42-20.71-26.911-32.67l-0.96-6.74c9.301 9.15 14.611 36.6 30.751 29.79 9.79 7.38 18.97-3.93 28.52-9.64-13.6 1.21-26.68-0.67-36.19-23.99l-9.62-13.45s0.04-1.74 4.61-9.6c5.29 4.36 10.58 9.22 15.71 14.42 13.03 13.19 22.95 22.88 30.78 30.18-1.78 0.52-3.54 1.39-5.29 2.44 2.34-0.21 4.7-0.48 7.06-0.78 25.14 23.21 26.3 18.83 32.9 17.86 2.16-28.13 13.35-55.82 29.61-83.98l37.18 7.49c9.02-0.55 11.53-0.24 17.58-7.7 2.53-3.62 6.71-8.05 5.58-15.17-1.27-6.27-7.07-9.34 2.12-17.94l8.09-5.21c-0.31-5.14 2.18-8.09-1.97-9.39l6.95-5.21c-2.91-5.07-6.48-4.15-4.64-18.17l18.51-10.04c4.45-2.24 5.43-6.79 4.64-12.52-15.55-12.1-25.31-23.2-30.67-37.84l4.78-7.82c3.68-5.25 1.3-9.49 0.69-14.03l-14.96-54.278c-1.49-11.96 16.17-24.804 6.62-33.257-6.18-5.477-12.52-19.456-35.95-28.368-3.2 1.3864-6.43-0.3168-9.54-3.4483-1.84-1.8582-4.17-2.5219-6.53-2.541zm-72.99 201.83v3.97c-6.46 3.23-11.1 12.27-11.1 22.92 0 13.36 7.31 24.24 16.34 24.24 9.02 0 16.36-10.88 16.36-24.24 0-8.97-3.31-16.79-8.2-20.98v-4.36c7.54 4.35 12.81 14.33 12.81 25.93 0 15.6-9.52 28.27-21.26 28.27s-21.26-12.67-21.26-28.27c0-13.33 6.95-24.51 16.31-27.48z"/>
  <text id="text2416" style="font-size:60px;font-family:BadaBoom BB;fill:#000000;line-height:125%" xml:space="preserve" y="164.04166" x="-99.84819" sodipodi:linespacing="125%">
    <tspan id="tspan2418" sodipodi:role="line" x="-99.84819" y="164.04166"/>
  </text>
  <metadata>
    <rdf:RDF>
      <cc:Work>
        <dc:format>image/svg+xml</dc:format>
        <dc:type rdf:resource="http://purl.org/dc/dcmitype/StillImage"/>
        <cc:license rdf:resource="http://creativecommons.org/licenses/publicdomain/"/>
        <dc:publisher>
          <cc:Agent rdf:about="http://openclipart.org/">
            <dc:title>Openclipart</dc:title>
          </cc:Agent>
        </dc:publisher>
        <dc:title>Female Profile Silhouette</dc:title>
        <dc:date>2011-08-24T10:31:46</dc:date>
        <dc:description>Female Profile.</dc:description>
        <dc:source>https://openclipart.org/detail/157927/female-profile-silhouette-by-studio_hades</dc:source>
        <dc:creator>
          <cc:Agent>
            <dc:title>studio_hades</dc:title>
          </cc:Agent>
        </dc:creator>
        <dc:subject>
          <rdf:Bag>
            <rdf:li>Face</rdf:li>
            <rdf:li>Female</rdf:li>
            <rdf:li>Girl</rdf:li>
            <rdf:li>Glyph</rdf:li>
            <rdf:li>Head</rdf:li>
            <rdf:li>Profile</rdf:li>
            <rdf:li>Silhouette</rdf:li>
            <rdf:li>Woman</rdf:li>
          </rdf:Bag>
        </dc:subject>
      </cc:Work>
      <cc:License rdf:about="http://creativecommons.org/licenses/publicdomain/">
        <cc:permits rdf:resource="http://creativecommons.org/ns#Reproduction"/>
        <cc:permits rdf:resource="http://creativecommons.org/ns#Distribution"/>
        <cc:permits rdf:resource="http://creativecommons.org/ns#DerivativeWorks"/>
      </cc:License>
    </rdf:RDF>
  </metadata>
</svg>